<svg xmlns="http://www.w3.org/2000/svg" viewBox="0 0 80 80" fill="none" aria-hidden="true">
  <!-- Center and scale rooster path into square for circle display -->
  <g transform="translate(40,40) scale(0.7) translate(-49,-32) translate(-230.22,-45.832)">
    <path fill="#ad9071" d="M307.892,60.328a8.31,8.31,0,0,1-1.022,4.317,2.186,2.186,0,0,0-.183.343.577.577,0,0,0,.468.822,6.319,6.319,0,0,0,.9.091c1.21.058,2.419.1,3.629.157a14.7,14.7,0,0,1,4.983,1.054,9.767,9.767,0,0,1,2.851,2,1.772,1.772,0,0,1,.388.863,1.353,1.353,0,0,0,.487.8,1.949,1.949,0,0,1,.511,2.657,13.277,13.277,0,0,1-6.383,6.038c-3.077,1.369-6.2,2.635-9.3,3.944-.8.336-1.594.666-2.389,1-.14.058-.278.121-.412.192a.611.611,0,0,0,.1,1.143c.574.188,1.16.347,1.727.552,1.279.461,2.553.938,3.825,1.419a3.985,3.985,0,0,1,1.589,1.192c.5.569,1.022,1.113,1.557,1.643a1.337,1.337,0,0,1,.222,1.962,7.208,7.208,0,0,1-.729.91,17.47,17.47,0,0,1-8.817,5.171,40.113,40.113,0,0,0-4.929,1.783,1.02,1.02,0,0,0-.559.671,11.844,11.844,0,0,0-.789,3.332c-.114,1.335-.192,2.672-.267,4.009a17.617,17.617,0,0,1-1.076,5.51,13.6,13.6,0,0,1-3.588,5.175,42.342,42.342,0,0,1-4.867,3.662,4.053,4.053,0,0,1-.822.375c-.988.375-1.982.731-2.965,1.115-.559.218-.649.423-.511,1,.283,1.175.6,2.344.847,3.526a15.1,15.1,0,0,1-.207,6.87,102.359,102.359,0,0,1-4.313,13.231,30.19,30.19,0,0,1-3.168,5.79,5.682,5.682,0,0,1-.753.886,3.909,3.909,0,0,1-2.851.811c-.349.009-.472-.218-.412-.584a1.826,1.826,0,0,1,.132-.433,57.488,57.488,0,0,0,2.648-8.528c.408-1.589.923-3.148,1.33-4.738.336-1.315.589-2.652.865-3.983.246-1.184.509-2.363.7-3.558a5.311,5.311,0,0,0-.015-1.673c-.274-1.682-.606-3.357-.921-5.033a4.517,4.517,0,0,0-.211-.746c-.259-.686-.444-.755-1.177-.692-1.2.1-2.413.224-3.618.209a23.35,23.35,0,0,1-2.626-.36c-1.671-.218-3.349-.392-5.016-.638a28.66,28.66,0,0,1-15.823-7.282c-1.423-1.324-2.864-2.644-4.173-4.076a23.917,23.917,0,0,1-5.889-11.373,29.323,29.323,0,0,0-.753-3.015,4.012,4.012,0,0,1,.367-3.422c.582-1.009.543-1.087-.552-1.512a5.72,5.72,0,0,1-3.733-4.817,10.226,10.226,0,0,1,.216-3.722,18.112,18.112,0,0,1,3.01-6.335,4.079,4.079,0,0,0,.369-.608.787.787,0,0,0-.455-1.21,4.618,4.618,0,0,0-1.307-.349c-.945-.091-1.9-.129-2.844-.149-.668-.013-.865-.136-.932-.783a4.408,4.408,0,0,1,1.432-3.922,3.034,3.034,0,0,0,1.031-2.909,39.726,39.726,0,0,1-.466-6.652,23.474,23.474,0,0,1,.33-4.647,8.2,8.2,0,0,1,1.736-3.646,7.045,7.045,0,0,0,.9-1.563,2.837,2.837,0,0,1,1.031-1.294c.766-.481,1.535-.96,2.3-1.44.328-.207.664-.4.975-.63.625-.459,1.115-.4,1.525.259a9.754,9.754,0,0,1,1.509,4.1,1.67,1.67,0,0,0,.082.442.572.572,0,0,0,.854.3,2.028,2.028,0,0,0,.311-.235,6.256,6.256,0,0,1,4.317-1.471.855.855,0,0,0,.567-.211,2.212,2.212,0,0,1,1.419-.552.616.616,0,0,1,.731.692c0,.216-.047.429-.058.645-.028.647.321.936.932.731a8.605,8.605,0,0,0,1.3-.558,2.19,2.19,0,0,1,1.553-.285,3.022,3.022,0,0,0,1.952-.22,3.665,3.665,0,0,1,3.129.244,1.08,1.08,0,0,1,.64,1.108,3.6,3.6,0,0,1-1.184,2.637c-2.607,2.432-5.188,4.895-7.774,7.351-.5.472-.474.731-.009,1.259a80.441,80.441,0,0,0,12.477,11.3c.477.356.7.364,1.134-.028a2.2,2.2,0,0,1,1.977-.565,11.4,11.4,0,0,1,7.168,4.3,26.306,26.306,0,0,1,1.525,2.478c.088.147.136.323.237.459a.579.579,0,0,0,1.037-.121,5.029,5.029,0,0,0,.22-.878,142.435,142.435,0,0,1,4.671-17.313,54.84,54.84,0,0,1,3.381-8.058,30.351,30.351,0,0,1,7.14-9.063,17.22,17.22,0,0,1,2.793-1.992,8.042,8.042,0,0,1,7.23-.518A6.885,6.885,0,0,1,306,50.191a17.88,17.88,0,0,1,1.093,3.856A48.223,48.223,0,0,1,307.892,60.328Z"/>
  </g>
</svg>
